{"glyphs":{":":{"x_min":0,"x_max":206,"ha":206,"o":""},"$":{"x_min":0,"x_max":540,"ha":540,"o":"m 333 -9 l 333 -141 l 224 -141 l 224 -12 q 103 -2 13 64 l 77 163 q 170 104 259 104 q 316 104 348 122 q 381 140 381 176 q 381 198 370 212 q 360 227 334 240 q 307 254 254 275 l 231 284 q 167 309 128 332 q 89 355 66 391 q 43 427 43 482 q 43 533 68 570 q 92 606 133 628 q 174 649 224 657 l 224 789 l 333 789 l 333 659 q 379 653 426 636 q 472 618 514 589 l 449 491 q 401 520 364 533 q 327 546 284 546 q 236 546 212 530 q 187 514 187 487 q 187 470 197 456 q 207 443 233 430 q 259 416 308 398 l 330 390 q 394 366 434 345 q 473 324 500 285 q 527 246 527 184 q 527 103 474 54 q 421 4 333 -9 z"},"?":{"x_min":0,"x_max":472,"ha":472,"o":"m 149 244 q 149 291 168 328 q 188 364 237 404 q 270 430 282 448 q 295 467 295 488 q 295 516 276 532 q 258 547 219 547 q 183 547 148 528 q 114 510 83 481 l 9 565 q 49 608 110 635 q 171 662 234 662 q 295 662 342 644 q 390 626 418 588 q 445 550 445 494 q 445 450 426 418 q 407 385 360 349 q 319 317 302 291 q 286 265 286 231 l 286 218 l 149 205 z m 136 67 q 136 88 147 106 q 158 124 176 135 q 195 146 217 146 q 238 146 256 135 q 275 124 286 106 q 298 88 298 67 q 298 45 287 27 q 276 9 257 -2 q 238 -13 217 -13 q 195 -13 176 -2 q 158 9 147 27 q 136 45 136 67 z"},"<":{"x_min":0,"x_max":540,"ha":540,"o":"m 480 375 l 173 256 l 480 138 l 437 34 l 60 180 l 60 330 l 437 480 z"},"'":{"x_min":0,"x_max":232,"ha":232,"o":"m 58 418 l 58 648 l 188 648 l 150 418 z"},"=":{"x_min":0,"x_max":540,"ha":540,"o":"m 60 287 l 60 398 l 480 398 l 480 287 z m 60 115 l 60 226 l 480 226 l 480 115 z"},"a":{"x_min":0,"x_max":495,"ha":495,"o":"m 440 317 l 440 0 l 324 0 l 313 35 q 276 8 240 -3 q 203 -14 163 -14 q 121 -14 89 2 q 57 18 40 46 q 22 75 22 112 q 22 191 100 232 q 178 274 304 279 l 304 290 q 304 318 298 334 q 293 350 279 358 q 265 365 240 365 q 177 365 97 314 l 45 396 q 99 431 150 448 q 202 465 263 465 q 351 465 396 430 q 440 396 440 317 z m 214 84 q 255 84 304 111 l 304 198 q 231 194 197 175 q 163 156 163 129 q 163 107 176 96 q 189 84 214 84 z"},"L":{"x_min":0,"x_max":521,"ha":521,"o":"m 213 122 l 507 122 l 507 0 l 71 0 l 71 648 l 213 648 z"},"3":{"x_min":0,"x_max":540,"ha":540,"o":"m 480 193 q 480 135 455 88 q 430 42 374 14 q 318 -14 231 -14 q 174 -14 124 -2 q 75 9 41 26 l 88 128 q 151 99 223 99 q 278 99 308 122 q 338 145 338 188 q 338 219 326 240 q 315 260 284 272 q 254 283 200 283 l 152 283 l 161 383 l 239 383 q 288 404 308 428 q 328 452 328 485 q 328 513 306 532 q 285 550 245 550 q 176 550 109 496 l 39 573 q 129 659 253 659 q 323 659 371 638 q 419 618 443 581 q 467 544 467 497 q 467 448 438 412 q 408 375 357 353 q 419 333 450 292 q 480 251 480 193 z"},";":{"x_min":0,"x_max":206,"ha":206,"o":""},"J":{"x_min":0,"x_max":476,"ha":476,"o":"m -4 54 l 65 148 q 92 126 118 116 q 143 106 174 106 q 221 106 246 133 q 270 160 270 209 l 270 648 l 412 648 l 412 206 q 412 123 378 74 q 344 25 294 6 q 244 -14 190 -14 q 74 -14 -4 54 z"},"V":{"x_min":0,"x_max":656,"ha":656,"o":"m 499 648 l 644 648 l 644 640 l 407 0 l 250 0 l 12 640 l 12 648 l 162 648 l 331 143 z"},"\"":{"x_min":0,"x_max":408,"ha":408,"o":""},"7":{"x_min":0,"x_max":540,"ha":540,"o":"m 496 648 l 496 585 q 288 289 252 0 l 105 0 q 119 128 177 266 q 235 405 332 534 l 43 534 l 57 648 z"},"S":{"x_min":0,"x_max":566,"ha":566,"o":"m 19 64 l 83 163 q 176 104 265 104 q 322 104 354 122 q 387 140 387 176 q 387 198 376 212 q 366 227 340 240 q 313 254 260 275 l 237 284 q 173 309 134 332 q 95 355 72 391 q 49 427 49 482 q 49 543 84 584 q 119 624 174 643 q 229 662 291 662 q 347 662 406 644 q 466 625 520 589 l 455 491 q 407 520 370 533 q 333 546 290 546 q 242 546 218 530 q 193 514 193 487 q 193 470 203 456 q 213 443 239 430 q 265 416 314 398 l 336 390 q 400 366 440 345 q 479 324 506 285 q 533 246 533 184 q 533 119 499 74 q 465 30 406 8 q 348 -14 274 -14 q 124 -14 19 64 z"},"}":{"x_min":0,"x_max":360,"ha":360,"o":"m 14 -25 q 55 -19 78 -10 q 102 -2 112 12 q 122 25 122 47 q 122 62 117 104 q 116 115 113 144 q 110 173 110 187 q 110 223 124 250 q 138 276 162 290 q 185 305 212 308 q 185 311 162 326 q 138 340 124 366 q 110 393 110 429 q 110 443 113 472 q 116 501 117 512 q 122 554 122 569 q 122 591 112 604 q 101 617 78 622 q 54 628 14 626 l 36 751 q 140 741 196 702 q 253 663 253 586 q 253 563 246 512 q 240 456 240 445 q 240 412 248 394 q 256 377 274 370 q 292 364 326 363 l 326 253 q 292 252 274 246 q 256 239 248 222 q 240 204 240 171 q 240 160 246 104 q 253 53 253 30 q 253 -47 196 -86 q 140 -125 36 -135 z"},"Z":{"x_min":0,"x_max":581,"ha":581,"o":"m 544 648 l 544 580 l 225 121 l 531 121 l 531 0 l 27 0 l 27 68 l 349 527 l 46 527 l 61 648 z"},"x":{"x_min":0,"x_max":501,"ha":501,"o":"m 339 235 l 491 8 l 491 0 l 331 0 l 249 146 l 157 0 l 11 0 l 11 8 l 167 232 l 22 443 l 22 450 l 180 450 l 258 318 l 336 450 l 477 450 l 477 443 z"},")":{"x_min":0,"x_max":360,"ha":360,"o":"m 16 -79 q 88 -5 128 88 q 169 181 169 303 q 169 426 128 520 q 88 613 16 687 l 92 751 q 162 688 208 626 q 255 563 282 484 q 308 404 308 303 q 308 204 282 125 q 255 46 208 -17 q 162 -80 92 -143 z"},"&":{"x_min":0,"x_max":685,"ha":685,"o":"m 592 -14 l 496 67 q 385 -14 252 -14 q 189 -14 140 7 q 91 28 64 68 q 37 107 37 162 q 37 226 70 270 q 102 315 160 353 q 115 396 97 430 q 79 463 79 503 q 79 545 102 582 q 124 618 167 640 q 210 662 268 662 q 325 662 368 644 q 412 627 436 594 q 461 562 461 516 q 461 459 432 420 q 402 382 348 348 l 496 227 q 525 271 553 335 l 669 287 q 636 214 586 154 l 680 77 z m 265 418 q 296 439 312 460 q 328 481 328 508 q 328 533 312 547 q 296 561 270 561 q 241 561 226 544 q 211 528 211 502 q 211 484 223 465 q 235 446 265 418 z m 414 136 l 241 281 q 211 259 194 233 q 178 207 178 174 q 178 153 188 135 q 198 117 220 105 q 243 93 279 93 q 357 93 414 136 z"},"_":{"x_min":0,"x_max":540,"ha":540,"o":"m 35 -171 l 35 -60 l 505 -60 l 505 -171 z"},"v":{"x_min":0,"x_max":476,"ha":476,"o":"m 475 450 l 475 443 l 309 0 l 172 0 l 1 443 l 1 450 l 145 450 l 222 211 q 236 165 243 132 q 245 140 250 164 q 255 188 261 211 l 325 450 z"},"O":{"x_min":0,"x_max":726,"ha":726,"o":"m 37 326 q 37 438 82 514 q 127 589 202 626 q 276 662 367 662 q 471 662 544 619 q 616 576 652 500 q 689 423 689 322 q 689 210 644 134 q 600 59 526 22 q 451 -14 360 -14 q 256 -14 184 29 q 111 72 74 148 q 37 225 37 326 z m 543 321 q 543 427 498 486 q 453 546 367 546 q 277 546 230 488 q 183 429 183 327 q 183 221 228 162 q 273 102 360 102 q 419 102 460 128 q 502 155 522 204 q 543 254 543 321 z"},"(":{"x_min":0,"x_max":360,"ha":360,"o":"m 52 303 q 52 404 78 484 q 105 563 152 626 q 198 688 268 751 l 344 687 q 272 613 232 520 q 191 426 191 303 q 191 181 232 88 q 272 -5 344 -79 l 268 -143 q 198 -80 152 -17 q 105 46 78 125 q 52 204 52 303 z"},"C":{"x_min":0,"x_max":578,"ha":578,"o":"m 37 319 q 37 442 79 518 q 121 595 190 628 q 260 662 347 662 q 408 662 459 648 q 510 633 561 603 l 508 498 q 437 544 354 544 q 185 544 185 327 q 185 219 232 163 q 279 107 365 107 q 409 107 442 118 q 475 130 511 151 l 566 51 q 512 19 460 2 q 409 -14 351 -14 q 188 -14 112 76 q 37 167 37 319 z"},"W":{"x_min":0,"x_max":925,"ha":925,"o":"m 909 648 l 909 640 l 743 0 l 567 0 l 487 355 q 473 414 462 498 q 451 414 437 355 l 359 0 l 183 0 l 16 640 l 16 648 l 161 648 l 244 297 q 251 269 259 223 q 267 177 273 132 q 289 235 303 297 l 385 648 l 546 648 l 626 304 q 644 223 658 131 q 664 173 672 220 q 681 267 689 304 l 766 648 z"},"A":{"x_min":0,"x_max":668,"ha":668,"o":"m 422 648 l 655 8 l 655 0 l 504 0 l 452 155 l 212 155 l 161 0 l 12 0 l 12 8 l 245 648 z m 250 269 l 414 269 l 331 516 z"},"f":{"x_min":0,"x_max":339,"ha":339,"o":"m 216 510 l 216 450 l 332 450 l 318 343 l 216 343 l 216 0 l 80 0 l 80 343 l 14 343 l 14 450 l 80 450 l 80 507 q 80 561 101 604 q 122 647 162 672 q 203 696 261 696 q 295 696 321 691 q 347 686 374 675 l 341 569 q 323 577 308 580 q 294 583 277 583 q 249 583 232 564 q 216 545 216 510 z"},"Q":{"x_min":0,"x_max":726,"ha":726,"o":"m 620 -171 l 391 -13 q 381 -14 360 -14 q 256 -14 184 29 q 111 72 74 148 q 37 225 37 326 q 37 438 82 514 q 127 589 202 626 q 276 662 367 662 q 471 662 544 619 q 616 576 652 500 q 689 423 689 322 q 689 224 647 150 q 605 77 535 34 l 698 -49 z m 360 102 q 419 102 460 128 q 502 155 522 204 q 543 254 543 321 q 543 427 498 486 q 453 546 367 546 q 277 546 230 488 q 183 429 183 327 q 183 221 228 162 q 273 102 360 102 z"},"w":{"x_min":0,"x_max":687,"ha":687,"o":"m 683 450 l 683 443 l 554 0 l 428 0 l 365 219 q 351 270 346 301 q 342 265 329 219 l 270 -2 l 140 -2 l 4 443 l 4 450 l 151 450 l 199 239 q 208 197 212 156 q 220 201 229 238 l 284 450 l 414 450 l 470 244 q 481 197 488 158 q 492 200 501 244 l 542 450 z"},"-":{"x_min":0,"x_max":380,"ha":380,"o":"m 42 210 l 42 327 l 338 327 l 338 210 z"},"E":{"x_min":0,"x_max":552,"ha":552,"o":"m 213 116 l 509 116 l 509 0 l 71 0 l 71 648 l 504 648 l 504 533 l 213 533 l 213 387 l 464 387 l 448 273 l 213 273 z"},"s":{"x_min":0,"x_max":437,"ha":437,"o":"m 11 48 l 68 135 q 105 108 143 96 q 181 85 216 85 q 249 85 264 95 q 280 105 280 122 q 280 133 274 142 q 268 150 250 158 q 231 167 195 177 l 166 185 q 94 205 62 237 q 31 269 31 324 q 31 366 54 398 q 77 430 119 448 q 161 465 215 465 q 317 465 400 416 l 348 329 q 307 350 279 358 q 251 366 219 366 q 194 366 182 357 q 169 348 169 334 q 169 324 174 318 q 179 311 192 306 q 206 300 235 292 l 268 283 q 345 263 380 227 q 416 191 416 136 q 416 93 394 59 q 373 25 328 6 q 284 -14 220 -14 q 156 -14 106 2 q 55 17 11 48 z"},">":{"x_min":0,"x_max":540,"ha":540,"o":"m 103 477 l 480 331 l 480 181 l 103 31 l 60 136 l 367 255 l 60 373 z"},"l":{"x_min":0,"x_max":256,"ha":256,"o":"m 60 0 l 60 688 l 196 701 l 196 0 z"},"8":{"x_min":0,"x_max":540,"ha":540,"o":"m 514 171 q 514 113 486 72 q 457 30 403 8 q 349 -14 272 -14 q 196 -14 141 7 q 86 28 56 68 q 27 108 27 164 q 27 215 58 256 q 89 298 164 334 q 62 399 62 493 q 62 547 91 585 q 120 623 168 642 q 217 660 274 660 q 339 660 386 639 q 433 618 458 582 q 482 546 482 501 q 482 419 373 354 q 421 328 452 302 q 482 276 498 244 q 514 212 514 171 z m 199 493 q 199 467 219 444 q 239 421 288 396 q 316 416 330 440 q 345 463 345 488 q 345 521 326 540 q 307 558 271 558 q 236 558 218 540 q 199 523 199 493 z m 371 169 q 371 198 358 217 q 346 236 324 250 q 301 263 250 288 q 205 262 188 236 q 170 209 170 180 q 170 143 194 118 q 219 93 271 93 q 306 93 328 104 q 351 115 361 132 q 371 150 371 169 z"},"\\":{"x_min":0,"x_max":530,"ha":530,"o":"m 371 -146 l 37 740 l 158 779 l 493 -106 z"},"e":{"x_min":0,"x_max":492,"ha":492,"o":"m 456 196 l 168 196 q 174 140 205 114 q 236 87 279 87 q 311 87 341 96 q 371 105 405 125 l 451 43 q 415 16 368 1 q 321 -14 266 -14 q 200 -14 148 10 q 95 34 64 86 q 32 139 32 222 q 32 298 58 353 q 85 408 136 436 q 186 465 255 465 q 321 465 368 439 q 414 413 437 368 q 460 323 460 266 q 460 246 456 196 z m 172 284 l 331 284 l 331 287 q 331 333 311 353 q 291 373 258 373 q 223 373 202 352 q 180 330 172 284 z"},"b":{"x_min":0,"x_max":545,"ha":545,"o":"m 513 232 q 513 142 476 87 q 438 32 379 9 q 320 -14 250 -14 q 214 -14 163 -8 q 112 -2 60 12 l 60 688 l 197 701 l 197 424 q 265 465 334 465 q 425 465 469 407 q 513 349 513 232 z m 373 234 q 373 282 365 310 q 357 338 338 350 q 320 363 288 363 q 249 363 197 336 l 197 90 q 217 86 243 86 q 304 86 338 122 q 373 159 373 234 z"},"%":{"x_min":0,"x_max":937,"ha":937,"o":"m 27 471 q 27 528 54 572 q 82 615 127 638 q 172 662 224 662 q 275 662 320 640 q 364 617 392 574 q 419 531 419 473 q 419 412 392 368 q 365 323 320 300 q 275 278 224 278 q 172 278 127 300 q 82 323 54 366 q 27 410 27 471 z m 291 -14 l 202 44 l 648 662 l 738 604 z m 290 470 q 290 511 274 536 q 257 560 224 560 q 190 560 174 536 q 157 512 157 474 q 157 433 174 406 q 191 380 224 380 q 256 380 273 406 q 290 432 290 470 z m 518 179 q 518 236 546 280 q 573 323 618 346 q 663 370 715 370 q 766 370 810 348 q 855 325 882 282 q 910 239 910 181 q 910 120 883 76 q 856 31 811 8 q 766 -14 715 -14 q 663 -14 618 8 q 573 31 546 74 q 518 118 518 179 z m 781 178 q 781 219 764 244 q 748 268 715 268 q 681 268 664 244 q 648 220 648 182 q 648 141 665 114 q 682 88 715 88 q 747 88 764 114 q 781 140 781 178 z"},"m":{"x_min":0,"x_max":796,"ha":796,"o":"m 741 331 l 741 0 l 605 0 l 605 290 q 605 330 594 346 q 582 363 555 363 q 519 363 469 334 l 469 331 l 469 0 l 333 0 l 333 290 q 333 330 322 346 q 310 363 283 363 q 244 363 196 334 l 196 0 l 60 0 l 60 447 l 196 460 l 196 421 q 265 465 339 465 q 415 465 448 415 q 488 439 528 452 q 568 465 611 465 q 674 465 708 430 q 741 396 741 331 z"},"#":{"x_min":0,"x_max":540,"ha":540,"o":"m 527 419 l 451 419 l 422 228 l 485 228 l 485 127 l 407 127 l 388 0 l 273 0 l 292 127 l 186 127 l 167 0 l 52 0 l 71 127 l 13 127 l 13 228 l 86 228 l 115 419 l 55 419 l 55 520 l 131 520 l 150 648 l 265 648 l 246 520 l 352 520 l 371 648 l 486 648 l 467 520 l 527 520 z m 307 228 l 336 419 l 230 419 l 201 228 z"},",":{"x_min":0,"x_max":206,"ha":206,"o":"m 20 -134 q 73 -65 73 -27 q 73 -14 68 -6 q 63 1 52 11 q 45 17 38 24 q 32 32 28 42 q 24 53 24 68 q 24 87 34 105 q 43 123 61 134 q 79 146 103 146 q 141 146 162 120 q 184 94 184 49 q 184 -3 158 -56 q 131 -110 83 -170 z"},"n":{"x_min":0,"x_max":542,"ha":542,"o":"m 487 330 l 487 0 l 351 0 l 351 290 q 351 318 346 334 q 340 349 327 356 q 314 363 290 363 q 250 363 196 331 l 196 0 l 60 0 l 60 447 l 196 460 l 196 416 q 233 439 270 452 q 308 465 348 465 q 417 465 452 430 q 487 396 487 330 z"},"h":{"x_min":0,"x_max":541,"ha":541,"o":"m 486 331 l 486 0 l 350 0 l 350 290 q 350 318 344 334 q 339 349 326 356 q 313 363 289 363 q 246 363 196 334 l 196 0 l 60 0 l 60 688 l 196 701 l 196 422 q 266 465 347 465 q 416 465 451 431 q 486 397 486 331 z"},"z":{"x_min":0,"x_max":444,"ha":444,"o":"m 420 450 l 420 390 l 210 113 l 417 113 l 417 0 l 18 0 l 18 62 l 230 337 l 33 337 l 48 450 z"},"B":{"x_min":0,"x_max":610,"ha":610,"o":"m 572 190 q 572 99 508 50 q 444 0 325 0 l 71 0 l 71 648 l 308 648 q 385 648 438 626 q 492 605 519 566 q 546 528 546 476 q 546 433 521 396 q 496 360 446 341 q 488 330 516 306 q 545 283 558 253 q 572 223 572 190 z m 213 536 l 213 385 l 292 385 q 402 385 402 464 q 402 499 378 518 q 353 536 306 536 z m 426 197 q 426 234 399 256 q 372 278 317 278 l 213 278 l 213 114 l 313 114 q 374 114 400 136 q 426 159 426 197 z"},"K":{"x_min":0,"x_max":645,"ha":645,"o":"m 366 342 l 636 8 l 636 0 l 463 0 l 213 321 l 213 0 l 71 0 l 71 648 l 213 648 l 213 348 l 462 648 l 622 648 l 622 640 z"},"R":{"x_min":0,"x_max":601,"ha":601,"o":"m 585 8 l 585 0 l 428 0 l 267 236 l 213 236 l 213 0 l 71 0 l 71 648 l 288 648 q 374 648 432 622 q 489 595 517 550 q 545 504 545 446 q 545 378 511 328 q 477 279 411 255 z m 213 343 l 274 343 q 334 343 366 366 q 399 389 399 442 q 399 488 370 511 q 341 534 289 534 l 213 534 z"},"T":{"x_min":0,"x_max":577,"ha":577,"o":"m 564 648 l 564 527 l 362 527 l 362 0 l 220 0 l 220 527 l 13 527 l 13 648 z"},"P":{"x_min":0,"x_max":576,"ha":576,"o":"m 554 440 q 554 375 525 324 q 496 274 438 246 q 379 217 295 217 l 213 217 l 213 0 l 71 0 l 71 648 l 298 648 q 384 648 441 621 q 498 594 526 548 q 554 501 554 440 z m 408 436 q 408 485 378 510 q 349 534 296 534 l 213 534 l 213 331 l 281 331 q 342 331 375 354 q 408 378 408 436 z"},"|":{"x_min":0,"x_max":270,"ha":270,"o":"m 68 -186 l 68 755 l 202 755 l 202 -186 z"},"t":{"x_min":0,"x_max":370,"ha":370,"o":"m 362 19 q 303 -14 230 -14 q 193 -14 162 0 q 130 15 110 47 q 90 79 90 128 l 90 343 l 8 343 l 8 450 l 90 450 l 90 551 l 226 570 l 226 450 l 351 450 l 337 343 l 226 343 l 226 149 q 226 119 236 107 q 247 95 266 95 q 280 95 293 98 q 306 102 325 110 z"},"M":{"x_min":0,"x_max":843,"ha":843,"o":"m 772 648 l 772 0 l 632 0 l 632 403 q 619 366 588 306 l 476 80 l 367 80 l 253 306 q 222 367 209 403 l 209 0 l 71 0 l 71 648 l 217 648 l 365 364 q 382 331 397 296 q 412 262 421 236 q 435 282 477 364 l 626 648 z"},"g":{"x_min":0,"x_max":528,"ha":528,"o":"m 515 -36 q 515 -86 484 -123 q 452 -160 394 -180 q 335 -200 256 -200 q 154 -200 88 -168 q 22 -137 22 -72 q 22 -35 41 -10 q 60 16 92 34 q 65 56 65 88 q 65 108 78 127 q 90 146 119 166 q 78 187 58 222 q 37 256 37 299 q 37 356 68 393 q 99 430 150 448 q 201 465 262 465 q 297 465 320 460 l 478 527 l 517 422 l 423 400 q 474 361 474 295 q 474 240 443 206 q 412 171 362 155 q 312 139 253 139 q 226 139 202 142 q 196 132 196 125 q 196 117 202 112 q 207 107 222 104 q 236 100 263 98 l 329 92 q 389 87 430 74 q 470 61 492 34 q 515 8 515 -36 z m 174 300 q 174 266 196 250 q 217 235 259 235 q 301 235 320 252 q 338 268 338 300 q 338 333 317 350 q 296 368 256 368 q 174 368 174 300 z m 367 -56 q 367 -42 358 -34 q 350 -26 330 -21 q 309 -16 271 -12 l 213 -7 q 198 -6 170 0 q 161 -14 156 -28 q 151 -42 151 -53 q 151 -79 174 -92 q 197 -105 258 -105 q 310 -105 338 -92 q 367 -79 367 -56 z"},"j":{"x_min":0,"x_max":256,"ha":256,"o":"m 40 601 q 40 624 52 644 q 64 663 84 674 q 104 686 127 686 q 151 686 172 674 q 192 663 204 644 q 216 624 216 601 q 216 578 204 559 q 192 540 172 528 q 151 517 127 517 q 104 517 84 528 q 64 540 52 559 q 40 578 40 601 z m -69 -179 l -40 -88 q -10 -97 10 -97 q 60 -97 60 -41 l 60 450 l 196 463 l 196 -32 q 196 -117 152 -158 q 109 -200 36 -200 q 11 -200 -17 -194 q -45 -189 -69 -179 z"},"i":{"x_min":0,"x_max":256,"ha":256,"o":"m 39 601 q 39 624 51 644 q 63 663 83 674 q 103 686 126 686 q 150 686 170 674 q 191 663 203 644 q 215 624 215 601 q 215 578 203 559 q 191 540 170 528 q 150 517 126 517 q 103 517 83 528 q 63 540 51 559 q 39 578 39 601 z m 60 0 l 60 447 l 196 460 l 196 0 z"},"y":{"x_min":0,"x_max":472,"ha":472,"o":"m 472 450 l 472 443 l 335 17 q 310 -61 278 -108 q 247 -155 204 -178 q 160 -200 98 -200 q 44 -200 -2 -182 l 32 -87 q 59 -97 88 -97 q 112 -97 131 -90 q 150 -84 168 -62 q 186 -41 202 0 l 166 0 l -2 443 l -2 450 l 140 450 l 220 209 q 229 182 242 128 q 251 168 263 207 l 331 450 z"},"@":{"x_min":0,"x_max":902,"ha":902,"o":"m 865 295 q 865 234 843 182 q 821 131 776 100 q 732 69 668 69 q 598 69 561 117 q 526 92 492 80 q 457 69 420 69 q 361 69 322 96 q 284 122 266 166 q 248 210 248 263 q 248 329 276 378 q 303 428 352 454 q 401 481 463 481 q 566 481 638 440 l 638 215 q 638 189 648 176 q 657 164 681 164 q 714 164 732 196 q 751 229 751 296 q 751 417 686 492 q 620 566 462 566 q 367 566 296 528 q 226 491 188 422 q 151 352 151 256 q 151 168 186 104 q 221 40 286 6 q 352 -28 443 -28 q 499 -28 544 -20 q 589 -12 631 7 l 663 -82 q 610 -106 558 -116 q 505 -125 442 -125 q 325 -125 232 -78 q 140 -31 88 56 q 37 142 37 256 q 37 383 92 474 q 148 566 246 614 q 344 662 469 662 q 595 662 684 614 q 774 565 820 482 q 865 398 865 295 z m 448 169 q 466 169 484 174 q 501 179 520 191 l 520 381 q 495 386 470 386 q 422 386 399 356 q 376 327 376 267 q 376 218 394 194 q 413 169 448 169 z"},".":{"x_min":0,"x_max":206,"ha":206,"o":"m 22 67 q 22 88 33 106 q 44 124 62 135 q 81 146 103 146 q 124 146 142 135 q 161 124 172 106 q 184 88 184 67 q 184 45 173 27 q 162 9 143 -2 q 124 -13 103 -13 q 81 -13 62 -2 q 44 9 33 27 q 22 45 22 67 z"},"p":{"x_min":0,"x_max":545,"ha":545,"o":"m 513 235 q 513 147 478 92 q 443 36 388 11 q 334 -14 272 -14 q 235 -14 196 -3 l 196 -186 l 60 -186 l 60 447 l 196 460 l 196 423 q 265 465 332 465 q 424 465 468 407 q 513 349 513 235 z m 373 235 q 373 284 364 312 q 356 339 337 351 q 318 363 285 363 q 245 363 196 335 l 196 90 q 224 85 249 85 q 308 85 340 122 q 373 160 373 235 z"},"X":{"x_min":0,"x_max":626,"ha":626,"o":"m 398 343 l 613 0 l 442 0 l 312 238 l 169 0 l 12 0 l 227 331 l 22 648 l 191 648 l 316 435 l 445 648 l 601 648 z"},"*":{"x_min":0,"x_max":500,"ha":500,"o":"m 446 501 l 319 479 l 408 386 l 308 316 l 250 429 l 192 316 l 92 386 l 181 479 l 54 501 l 92 616 l 207 560 l 188 688 l 311 688 l 293 560 l 408 616 z"},"Y":{"x_min":0,"x_max":636,"ha":636,"o":"m 624 648 l 624 640 l 388 270 l 388 0 l 246 0 l 246 266 l 12 640 l 12 648 l 172 648 l 318 398 l 470 648 z"},"c":{"x_min":0,"x_max":443,"ha":443,"o":"m 32 215 q 32 300 66 356 q 101 413 155 439 q 209 465 268 465 q 310 465 344 456 q 379 446 422 423 l 375 334 q 343 350 321 356 q 299 362 277 362 q 230 362 202 326 q 173 289 173 216 q 173 147 202 120 q 230 94 276 94 q 304 94 328 103 q 353 112 383 129 l 431 42 q 344 -14 256 -14 q 158 -14 95 38 q 32 90 32 215 z"},"!":{"x_min":0,"x_max":229,"ha":229,"o":"m 62 204 l 39 648 l 190 648 l 166 213 z m 33 67 q 33 88 44 106 q 55 124 74 135 q 92 146 114 146 q 135 146 154 135 q 172 124 184 106 q 195 88 195 67 q 195 45 184 27 q 173 9 154 -2 q 135 -13 114 -13 q 92 -13 74 -2 q 55 9 44 27 q 33 45 33 67 z"},"/":{"x_min":0,"x_max":530,"ha":530,"o":"m 159 -146 l 37 -106 l 372 779 l 493 740 z"},"[":{"x_min":0,"x_max":360,"ha":360,"o":"m 67 -126 l 67 743 l 344 743 l 344 628 l 202 628 l 202 -11 l 344 -11 l 344 -126 z"},"6":{"x_min":0,"x_max":540,"ha":540,"o":"m 509 213 q 509 130 473 80 q 437 29 384 8 q 331 -14 276 -14 q 204 -14 152 20 q 99 53 70 116 q 42 179 42 263 q 42 396 80 485 q 118 574 183 617 q 248 660 329 660 q 396 660 463 635 l 434 534 q 387 553 330 553 q 263 553 230 509 q 197 465 187 390 q 247 426 316 426 q 370 426 414 402 q 457 378 483 330 q 509 282 509 213 z m 375 206 q 375 263 354 294 q 333 325 279 325 q 253 325 230 318 q 208 310 180 294 l 180 263 q 180 178 204 137 q 228 96 280 96 q 325 96 350 124 q 375 153 375 206 z"},"r":{"x_min":0,"x_max":385,"ha":385,"o":"m 374 456 l 354 319 q 338 325 325 328 q 312 331 295 331 q 269 331 244 318 q 220 306 196 274 l 196 0 l 60 0 l 60 447 l 196 460 l 196 397 q 246 465 320 465 q 349 465 374 456 z"},"2":{"x_min":0,"x_max":540,"ha":540,"o":"m 246 114 l 478 114 l 478 0 l 38 0 l 38 65 q 159 187 222 258 q 284 330 308 374 q 332 419 332 457 q 332 497 309 519 q 286 541 245 541 q 211 541 180 526 q 148 510 111 480 l 39 566 q 86 610 144 635 q 202 660 264 660 q 327 660 376 640 q 424 620 452 579 q 480 538 480 477 q 480 428 460 380 q 440 331 389 268 q 338 205 246 114 z"},"{":{"x_min":0,"x_max":360,"ha":360,"o":"m 107 30 q 107 53 114 104 q 120 160 120 171 q 120 204 112 222 q 104 239 86 246 q 68 252 34 253 l 34 363 q 68 364 86 370 q 104 377 112 394 q 120 412 120 445 q 120 456 114 512 q 107 563 107 586 q 107 663 164 702 q 220 741 324 751 l 346 626 q 306 628 282 622 q 259 617 248 604 q 238 591 238 569 q 238 554 243 512 q 244 501 247 472 q 250 443 250 429 q 250 393 236 366 q 222 340 198 326 q 175 311 148 308 q 175 305 198 290 q 222 276 236 250 q 250 223 250 187 q 250 173 247 144 q 244 115 243 104 q 238 62 238 47 q 238 25 248 12 q 258 -2 282 -10 q 305 -19 346 -25 l 324 -135 q 220 -125 164 -86 q 107 -47 107 30 z"},"9":{"x_min":0,"x_max":540,"ha":540,"o":"m 498 387 q 498 254 461 164 q 424 74 360 30 q 295 -14 210 -14 q 145 -14 75 12 l 106 110 q 158 90 209 90 q 278 90 312 136 q 345 181 355 256 q 293 218 222 218 q 169 218 126 242 q 82 267 56 316 q 31 366 31 438 q 31 506 60 556 q 89 607 142 634 q 195 661 263 661 q 336 661 389 628 q 442 595 470 534 q 498 472 498 387 z m 361 350 l 361 383 q 361 470 338 512 q 314 553 261 553 q 217 553 190 524 q 164 496 164 443 q 164 385 186 352 q 207 320 260 320 q 287 320 310 327 q 334 334 361 350 z"}," ":{"x_min":0,"x_max":225,"ha":225,"o":""},"I":{"x_min":0,"x_max":285,"ha":285,"o":"m 71 0 l 71 648 l 213 648 l 213 0 z"},"H":{"x_min":0,"x_max":720,"ha":720,"o":"m 506 648 l 648 648 l 648 0 l 506 0 l 506 269 l 213 269 l 213 0 l 71 0 l 71 648 l 213 648 l 213 389 l 506 389 z"},"4":{"x_min":0,"x_max":540,"ha":540,"o":"m 521 254 l 521 141 l 443 141 l 443 0 l 305 0 l 305 141 l 18 141 l 18 205 l 193 648 l 347 648 l 179 254 l 305 254 l 332 414 l 443 414 l 443 254 z"},"~":{"x_min":0,"x_max":540,"ha":540,"o":"m 241 217 q 224 228 213 234 q 202 239 190 239 q 167 239 153 228 q 139 216 124 186 l 46 213 q 68 280 108 315 q 149 350 210 350 q 238 350 258 341 q 279 332 306 315 q 322 304 334 298 q 346 293 358 293 q 376 293 389 304 q 402 314 416 345 l 494 318 q 472 251 433 216 q 394 181 338 181 q 309 181 288 190 q 266 200 241 217 z"},"D":{"x_min":0,"x_max":679,"ha":679,"o":"m 641 324 q 641 216 592 143 q 543 70 462 35 q 380 0 282 0 l 71 0 l 71 648 l 287 648 q 455 648 548 574 q 641 501 641 324 z m 487 324 q 487 399 464 443 q 442 487 398 506 q 354 526 287 526 l 213 526 l 213 122 l 257 122 q 339 122 388 138 q 437 155 462 199 q 487 243 487 324 z"},"^":{"x_min":0,"x_max":540,"ha":540,"o":"m 495 327 l 347 327 l 265 518 l 185 327 l 45 327 l 206 648 l 334 648 z"},"0":{"x_min":0,"x_max":540,"ha":540,"o":"m 27 324 q 27 454 64 529 q 101 604 157 633 q 213 662 276 662 q 388 662 450 580 q 513 499 513 322 q 513 134 440 60 q 368 -14 264 -14 q 191 -14 138 22 q 85 59 56 134 q 27 210 27 324 z m 369 324 q 369 434 347 488 q 325 542 273 542 q 238 542 216 520 q 193 499 182 450 q 171 402 171 322 q 171 212 193 159 q 215 106 267 106 q 302 106 324 127 q 347 148 358 196 q 369 243 369 324 z"},"F":{"x_min":0,"x_max":530,"ha":530,"o":"m 504 533 l 213 533 l 213 371 l 464 371 l 448 257 l 213 257 l 213 0 l 71 0 l 71 648 l 504 648 z"},"`":{"x_min":0,"x_max":326,"ha":326,"o":"m 246 489 l 44 582 l 112 690 l 291 552 z"},"k":{"x_min":0,"x_max":516,"ha":516,"o":"m 338 244 l 512 8 l 512 0 l 353 0 l 196 224 l 196 0 l 60 0 l 60 688 l 196 701 l 196 248 l 359 450 l 503 450 l 503 443 z"},"u":{"x_min":0,"x_max":540,"ha":540,"o":"m 480 460 l 480 0 l 364 0 l 353 36 q 276 -14 195 -14 q 128 -14 92 23 q 55 60 55 125 l 55 447 l 191 460 l 191 165 q 191 125 204 108 q 217 90 251 90 q 287 90 344 121 l 344 447 z"},"]":{"x_min":0,"x_max":360,"ha":360,"o":"m 16 -126 l 16 -11 l 158 -11 l 158 628 l 16 628 l 16 743 l 293 743 l 293 -126 z"},"U":{"x_min":0,"x_max":688,"ha":688,"o":"m 57 264 l 57 648 l 199 648 l 199 281 q 199 197 232 150 q 265 104 347 104 q 425 104 457 150 q 489 197 489 271 l 489 648 l 631 648 l 631 267 q 631 168 593 106 q 555 43 490 14 q 424 -14 338 -14 q 240 -14 177 22 q 114 59 86 122 q 57 184 57 264 z"},"o":{"x_min":0,"x_max":542,"ha":542,"o":"m 32 226 q 32 312 66 365 q 99 418 154 442 q 209 465 277 465 q 353 465 406 434 q 458 404 484 350 q 510 296 510 225 q 510 142 478 88 q 445 35 390 10 q 334 -14 264 -14 q 189 -14 136 18 q 84 50 58 104 q 32 159 32 226 z m 369 226 q 369 294 346 329 q 322 364 273 364 q 220 364 196 330 q 172 295 172 226 q 172 161 196 124 q 221 87 271 87 q 325 87 347 124 q 369 162 369 226 z"},"N":{"x_min":0,"x_max":717,"ha":717,"o":"m 646 648 l 646 0 l 492 0 l 289 302 q 263 342 245 372 q 227 401 210 438 l 210 0 l 71 0 l 71 648 l 224 648 l 445 316 q 449 310 463 288 q 477 267 488 248 q 500 229 508 211 l 508 648 z"},"+":{"x_min":0,"x_max":540,"ha":540,"o":"m 209 50 l 209 200 l 60 200 l 60 310 l 209 310 l 209 459 l 332 459 l 332 310 l 480 310 l 480 200 l 332 200 l 332 50 z"},"G":{"x_min":0,"x_max":648,"ha":648,"o":"m 597 373 l 597 49 q 530 15 472 0 q 413 -14 352 -14 q 189 -14 113 76 q 37 167 37 321 q 37 439 80 516 q 123 592 196 627 q 269 662 362 662 q 423 662 479 646 q 535 631 582 601 l 524 500 q 448 545 369 545 q 276 545 230 488 q 184 432 184 327 q 184 216 226 162 q 269 107 361 107 q 413 107 455 123 l 455 258 l 317 258 l 333 373 z"},"q":{"x_min":0,"x_max":542,"ha":542,"o":"m 482 430 l 482 -186 l 346 -186 l 346 24 q 286 -14 218 -14 q 125 -14 78 45 q 32 104 32 214 q 32 305 70 361 q 109 417 167 440 q 225 464 289 464 q 333 464 376 458 q 419 451 482 430 z m 346 116 l 346 362 q 318 368 293 368 q 238 368 205 330 q 172 291 172 214 q 172 151 192 120 q 212 88 254 88 q 277 88 299 95 q 321 102 346 116 z"},"d":{"x_min":0,"x_max":542,"ha":542,"o":"m 482 701 l 482 0 l 366 0 l 356 31 q 290 -14 220 -14 q 127 -14 80 44 q 32 103 32 215 q 32 303 66 359 q 100 415 154 440 q 207 465 267 465 q 304 465 346 454 l 346 688 z m 256 88 q 279 88 301 95 q 323 102 346 116 l 346 362 q 315 369 288 369 q 235 369 204 330 q 172 290 172 216 q 172 150 193 119 q 214 88 256 88 z"},"1":{"x_min":0,"x_max":540,"ha":540,"o":"m 367 114 l 487 114 l 487 0 l 71 0 l 71 114 l 229 114 l 229 503 l 108 446 l 53 524 l 229 648 l 367 648 z"},"5":{"x_min":0,"x_max":540,"ha":540,"o":"m 489 207 q 489 148 465 98 q 441 49 384 18 q 328 -13 238 -13 q 183 -13 138 -2 q 92 8 51 27 l 97 129 q 162 101 226 101 q 288 101 318 129 q 347 157 347 198 q 347 230 336 253 q 325 276 296 289 q 266 302 214 302 q 193 302 172 300 q 150 297 139 293 l 90 333 l 90 648 l 471 648 l 455 534 l 228 534 l 228 403 q 254 405 268 405 q 335 405 385 382 q 435 360 462 316 q 489 271 489 207 z"}}}
